<?xml version="1.0" encoding="UTF-8"?>
<svg version="1.1" xmlns="http://www.w3.org/2000/svg" width="1280" height="800">
<path d="M0 0 C1.93917762 -0.00417512 3.87835211 -0.01010203 5.81751966 -0.01761746 C11.1552517 -0.03320814 16.49269472 -0.02386643 21.8304221 -0.01050565 C27.634057 -0.00036938 33.4376472 -0.01339433 39.24127579 -0.02347898 C50.08439643 -0.03888877 60.92742422 -0.03620323 71.77054774 -0.02526774 C82.0181018 -0.01513335 92.26561224 -0.0144738 102.51316833 -0.02223969 C103.20290348 -0.02275638 103.89263863 -0.02327307 104.60327484 -0.02380541 C107.41250626 -0.02593852 110.22173762 -0.02813336 113.03096893 -0.03040652 C139.19133009 -0.05155992 165.35165792 -0.05300041 191.51202393 -0.04181671 C192.67460555 -0.04131994 192.67460555 -0.04131994 193.86067368 -0.04081313 C195.0251153 -0.04031555 195.0251153 -0.04031555 196.213081 -0.03980792 C219.85806144 -0.02971745 243.50302811 -0.02710857 267.14801025 -0.0318985 C268.73104653 -0.03220842 270.3140828 -0.03251704 271.89711908 -0.03282438 C278.25859788 -0.03406623 284.62007668 -0.0353409 290.98155548 -0.03666343 C308.76480313 -0.04033156 326.54805084 -0.04261389 344.33129883 -0.04380798 C345.14112296 -0.04386257 345.95094709 -0.04391715 346.78531135 -0.04397339 C372.59194307 -0.04561063 398.39856998 -0.04110225 424.2052002 -0.03240967 C425.46082367 -0.03198817 425.46082367 -0.03198817 426.74181328 -0.03155816 C440.33570665 -0.02697831 453.92959992 -0.02210049 467.52349318 -0.01719747 C521.43932044 0.00222805 575.35510797 0.00132643 629.27093506 -0.01811981 C642.85795081 -0.02300453 656.44496656 -0.02784871 670.03198242 -0.03240967 C671.28686534 -0.03283236 671.28686534 -0.03283236 672.56709943 -0.03326359 C698.34669485 -0.0418876 724.12628697 -0.04554556 749.90588379 -0.04380798 C750.71511414 -0.04375365 751.52434449 -0.04369931 752.35809697 -0.04364333 C770.12154842 -0.04239344 787.88499952 -0.03985895 805.64845063 -0.03616597 C812.00426105 -0.03484939 818.36007149 -0.03359707 824.71588193 -0.03236313 C826.29705917 -0.03205357 827.87823642 -0.03173865 829.45941367 -0.03141834 C853.09845124 -0.02664284 876.7374733 -0.03071193 900.37650894 -0.04081313 C901.15156336 -0.04114431 901.92661777 -0.04147549 902.72515869 -0.04181671 C903.49878495 -0.04214744 904.2724112 -0.04247817 905.06948067 -0.04281892 C931.15397341 -0.05384823 957.23842615 -0.04980065 983.32291317 -0.02869374 C986.12328017 -0.02648429 988.9236472 -0.02433748 991.72401428 -0.02223969 C992.41127742 -0.02171886 993.09854056 -0.02119803 993.80662986 -0.02066142 C1004.0284871 -0.01325078 1014.25029904 -0.01698142 1024.47215271 -0.02729034 C1035.83988837 -0.03867435 1047.20751969 -0.03701245 1058.5752459 -0.01725936 C1064.30145722 -0.00771553 1070.02747989 -0.00455011 1075.75368547 -0.01888329 C1080.96118595 -0.03178558 1086.16833008 -0.02634273 1091.37580448 -0.00616065 C1093.24961826 -0.00212626 1095.12346142 -0.0048116 1096.99725193 -0.0149844 C1110.76064735 -0.08441362 1120.59567564 1.17486381 1130.91546631 10.99164581 C1136.60655255 17.47988775 1139.23770779 24.66392172 1139.25281239 33.19944191 C1139.25949915 34.95254399 1139.25949915 34.95254399 1139.266321 36.74106228 C1139.26604446 38.66855496 1139.26604446 38.66855496 1139.26576233 40.63498688 C1139.26906217 42.01312135 1139.27278799 43.39125485 1139.27690381 44.76938713 C1139.28691831 48.56057229 1139.29063972 52.35174162 1139.29329312 56.14293814 C1139.2971978 60.23035701 1139.30677602 64.31776337 1139.31550598 68.40517426 C1139.3352657 78.27831354 1139.34533595 88.15145384 1139.35423377 98.02460796 C1139.35861745 102.67455952 1139.36398406 107.32450994 1139.36922264 111.9744606 C1139.38623438 127.43280361 1139.40072847 142.89114591 1139.40797138 158.34949684 C1139.40988126 162.36074703 1139.4118016 166.37199721 1139.41375732 170.38324738 C1139.41424106 171.38021821 1139.4147248 172.37718905 1139.4152232 173.40437113 C1139.4235232 189.554013 1139.44885986 205.70358079 1139.481338 221.85319032 C1139.51441369 238.4351687 1139.5324206 255.01710943 1139.53561562 271.59912097 C1139.53778024 280.90869101 1139.54652184 290.21815301 1139.5720768 299.52769089 C1139.59379074 307.45625777 1139.6018308 315.38469039 1139.59211002 323.31328364 C1139.58756733 327.35708737 1139.58944955 331.40061412 1139.60887146 335.44437981 C1139.62651847 339.15068163 1139.62549334 342.8565047 1139.60997417 346.56281172 C1139.60648096 348.5296316 1139.62261294 350.4964566 1139.63957864 352.46320641 C1139.56781477 362.3684443 1137.72912535 370.47575978 1130.80609131 377.87836456 C1130.0880835 378.66984894 1129.37007568 379.46133331 1128.63031006 380.27680206 C1122.96714476 385.29702635 1118.45436421 387.10254296 1110.92419636 387.00706255 C1109.72081629 387.01584915 1109.72081629 387.01584915 1108.49312551 387.02481325 C1105.80048805 387.0395857 1103.10875735 387.02586312 1100.41612434 387.01231575 C1098.45967498 387.01709488 1096.50322924 387.02362489 1094.5467909 387.03174895 C1089.14713224 387.04904523 1083.74775041 387.04131299 1078.34808725 387.0296375 C1072.48254066 387.02131975 1066.61704566 387.03608777 1060.75151145 387.04794252 C1050.46358898 387.06550133 1040.17573904 387.06821528 1029.88780594 387.06093597 C1018.84792809 387.05318698 1007.80810181 387.05408792 996.76822662 387.06555557 C996.07115778 387.06627322 995.37408894 387.06699088 994.6558968 387.06773027 C991.81687995 387.07068006 988.97786317 387.07368885 986.13884646 387.07677321 C957.30978494 387.10805655 928.48075881 387.11339968 899.65168336 387.10846108 C895.66723429 387.1077842 891.68278521 387.10714001 887.69833612 387.10652971 C886.90694778 387.10640763 886.11555944 387.10628554 885.30018964 387.10615975 C867.76832713 387.10361686 850.2364695 387.10881708 832.70460844 387.11558185 C828.7024648 387.11712332 824.70032114 387.11861278 820.69817748 387.12011188 C819.091979 387.12071526 817.48578052 387.12131902 815.87958205 387.12192316 C815.08342347 387.12222252 814.2872649 387.12252188 813.46698031 387.12283031 C811.85658759 387.12343737 810.24619488 387.12404673 808.63580216 387.1246584 C762.9347834 387.14200733 717.23376893 387.15129016 671.53274727 387.14276314 C670.68631009 387.14260702 669.83987291 387.14245091 668.96778612 387.14229007 C659.52890009 387.14054443 650.09001408 387.13868591 640.65112807 387.1367888 C639.37281516 387.13653227 639.37281516 387.13653227 638.06867775 387.13627056 C630.98710935 387.13484889 630.98710935 387.13484889 627.72946376 387.13418611 C573.21380124 387.12311341 518.69820644 387.13820089 464.18255615 387.17572784 C450.44581173 387.18517207 436.70906727 387.19453301 422.97232246 387.20340157 C421.70362845 387.20422153 421.70362845 387.20422153 420.40930426 387.20505806 C394.34707226 387.22179707 368.2848459 387.23115965 342.22260857 387.2328167 C341.40453212 387.23286943 340.58645567 387.23292216 339.74358903 387.23297649 C321.78610773 387.23405799 303.82862688 387.2333133 285.87114572 387.23089706 C279.44589105 387.23004579 273.02063636 387.22931555 266.59538166 387.22863818 C264.99690965 387.22846758 263.39843764 387.22828971 261.79996563 387.22810454 C236.31649802 387.22520552 210.8330764 387.23946904 185.34961983 387.26211246 C158.97480933 387.28539618 132.60008102 387.2865579 106.22527017 387.26242562 C103.39409955 387.2599219 100.56292888 387.25751494 97.73175812 387.25518417 C97.03693094 387.25460359 96.34210375 387.254023 95.6262212 387.25342482 C84.61600618 387.24476777 73.60590774 387.25624647 62.59571102 387.27606456 C51.77415533 387.2951205 40.95278797 387.29230928 30.1312428 387.26765211 C24.34038216 387.25507311 18.54994522 387.25210614 12.7591082 387.27537878 C7.49400767 387.2963447 2.22969258 387.28984748 -3.03536507 387.26116972 C-4.93110525 387.25569932 -6.82690759 387.26034271 -8.72258949 387.27618401 C-25.77785198 387.40901233 -25.77785198 387.40901233 -32.25552917 382.11300268 C-33.06033953 381.31623181 -33.06033953 381.31623181 -33.88140869 380.50336456 C-34.47161672 379.92811973 -35.06182475 379.35287489 -35.66991787 378.76019839 C-45.11501169 369.03408648 -45.03101024 357.08785588 -45.01512146 344.3526535 C-45.01699122 343.00905348 -45.01929259 341.66545399 -45.02198678 340.32185537 C-45.02809071 336.64005764 -45.02797285 332.95828266 -45.02679241 329.27648103 C-45.02658805 325.30159365 -45.03211053 321.32671352 -45.03684998 317.35182953 C-45.04514928 309.5682424 -45.04790449 301.78466284 -45.04846235 294.00107165 C-45.04893784 287.67313829 -45.05099421 281.34520743 -45.05416298 275.01727486 C-45.06296746 257.069253 -45.06758266 239.12123712 -45.06683251 221.17321309 C-45.06679255 220.20603759 -45.06675259 219.23886208 -45.06671143 218.24237823 C-45.06667055 217.27401943 -45.06662966 216.30566063 -45.06658754 215.30795763 C-45.06618109 199.61442176 -45.07575092 183.92090988 -45.08984979 168.22738095 C-45.10421825 152.10635244 -45.11111972 135.98533563 -45.11025602 119.86430055 C-45.10992422 110.8163831 -45.11266384 101.76849082 -45.12343407 92.72057915 C-45.13254522 85.01718627 -45.13470924 77.31382996 -45.12792464 69.61043402 C-45.1246626 65.68212902 -45.12459135 61.75389416 -45.13327789 57.82559586 C-45.14115773 54.22500283 -45.13969639 50.62453538 -45.13099376 47.02394537 C-45.12873998 45.11395261 -45.13627575 43.20395591 -45.14423341 41.29397839 C-45.09471348 28.89804256 -43.52953188 18.9646702 -35.06109619 9.46039581 C-24.84396495 -0.23967413 -13.29211497 -0.07216281 0 0 Z " fill="#54B948" transform="translate(92.88140869140625,205.49663543701172)"/>
<path d="M0 0 C0.74915176 0.48034195 1.49830353 0.9606839 2.27015686 1.45558167 C3.25616379 2.08584763 4.24217072 2.71611359 5.25805664 3.36547852 C6.2340834 3.99019547 7.21011017 4.61491241 8.2157135 5.25856018 C33.66097369 21.17336971 63.84407027 29.03910321 92.86279297 35.31274414 C94.95485206 35.77104347 97.04260626 36.24945344 99.12548828 36.74780273 C108.95691898 39.02887545 118.82900977 40.18226017 128.85400391 41.25268555 C131.7044694 41.55762912 134.55340112 41.87453621 137.40234375 42.19335938 C143.26395778 42.84077733 149.13116424 43.42239288 155 44 C156.35257661 44.13773311 156.35257661 44.13773311 157.73247801 44.27824871 C178.22258648 46.3140797 198.65553493 46.29528825 219.22294577 46.27947159 C224.37637927 46.27774534 229.52979363 46.2876643 234.68321884 46.29602563 C243.69110928 46.30907549 252.69898105 46.31487904 261.70688057 46.31578636 C275.10104886 46.31716907 288.4951896 46.32999252 301.88934861 46.3450741 C324.4263942 46.37013064 346.96343624 46.38605146 369.5004921 46.39665604 C391.80212024 46.40717802 414.10373954 46.42182478 436.40536118 46.44193649 C437.09935178 46.44256048 437.79334238 46.44318446 438.508363 46.44382735 C444.8474024 46.4495291 451.18644175 46.45528126 457.52548105 46.46109388 C473.27980871 46.47553928 489.0341369 46.48935296 504.7884655 46.50273705 C505.5056835 46.50334687 506.22290151 46.50395669 506.96185339 46.50458498 C541.80431827 46.53415491 576.64678729 46.55644433 611.48925781 46.578125 C623.57216394 46.58564763 635.65507005 46.59320255 647.73797607 46.60089111 C648.48741452 46.60136796 649.23685296 46.60184481 650.00900166 46.60233611 C684.8840575 46.62457051 719.7591087 46.65199521 754.63415971 46.68074883 C756.89979062 46.68261669 759.16542153 46.68448232 761.43105244 46.6863475 C776.44619252 46.69871226 791.46133252 46.71116625 806.47647247 46.72367998 C836.34988062 46.74857592 866.22328918 46.77294772 896.09669805 46.79695912 C897.51917283 46.79810247 898.94164761 46.79924618 900.36412239 46.80039027 C986.19926934 46.86942262 1072.03442382 46.92745568 1184 47 C1184.10001808 51.08920079 1184.17200015 55.17791311 1184.21972656 59.26806641 C1184.23965342 60.65491156 1184.2668056 62.04167482 1184.30175781 63.42822266 C1184.57626476 74.61034385 1183.62338466 83.88938265 1175.6875 92.375 C1174.61048828 93.56222656 1174.61048828 93.56222656 1173.51171875 94.7734375 C1167.84855346 99.79366179 1163.33577291 101.59917839 1155.80560505 101.50369799 C1154.60222498 101.51248459 1154.60222498 101.51248459 1153.3745342 101.52144869 C1150.68189674 101.53622114 1147.99016604 101.52249856 1145.29753304 101.50895119 C1143.34108367 101.51373032 1141.38463793 101.52026033 1139.42819959 101.52838439 C1134.02854093 101.54568066 1128.6291591 101.53794843 1123.22949594 101.52627294 C1117.36394935 101.51795518 1111.49845435 101.5327232 1105.63292015 101.54457796 C1095.34499768 101.56213676 1085.05714774 101.56485072 1074.76921463 101.55757141 C1063.72933678 101.54982242 1052.6895105 101.55072336 1041.64963531 101.56219101 C1040.95256647 101.56290866 1040.25549763 101.56362631 1039.53730549 101.56436571 C1036.69828864 101.5673155 1033.85927186 101.57032429 1031.02025515 101.57340864 C1002.19119363 101.60469199 973.36216751 101.61003511 944.53309205 101.60509652 C940.54864298 101.60441964 936.5641939 101.60377544 932.57974482 101.60316515 C931.78835648 101.60304306 930.99696814 101.60292098 930.18159833 101.60279519 C912.64973583 101.60025229 895.11787819 101.60545252 877.58601713 101.61221728 C873.58387349 101.61375876 869.58172983 101.61524821 865.57958617 101.61674731 C863.97338769 101.6173507 862.36718922 101.61795446 860.76099074 101.6185586 C859.96483216 101.61885796 859.16867359 101.61915732 858.348389 101.61946575 C856.73799629 101.62007281 855.12760357 101.62068217 853.51721086 101.62129384 C807.81619209 101.63864277 762.11517762 101.6479256 716.41415596 101.63939857 C715.56771878 101.63924246 714.7212816 101.63908635 713.84919482 101.6389255 C704.41030878 101.63717987 694.97142277 101.63532135 685.53253676 101.63342424 C684.25422385 101.63316771 684.25422385 101.63316771 682.95008644 101.632906 C675.86851805 101.63148432 675.86851805 101.63148432 672.61087245 101.63082154 C618.09520993 101.61974884 563.57961513 101.63483632 509.06396484 101.67236328 C495.32722042 101.68180751 481.59047596 101.69116844 467.85373116 101.700037 C466.58503714 101.70085697 466.58503714 101.70085697 465.29071295 101.7016935 C439.22848095 101.7184325 413.16625459 101.72779508 387.10401726 101.72945213 C386.28594081 101.72950487 385.46786437 101.7295576 384.62499772 101.72961193 C366.66751642 101.73069343 348.71003557 101.72994874 330.75255441 101.7275325 C324.32729974 101.72668123 317.90204505 101.72595099 311.47679035 101.72527362 C309.87831834 101.72510301 308.27984633 101.72492514 306.68137432 101.72473998 C281.19790671 101.72184095 255.71448509 101.73610447 230.23102852 101.7587479 C203.85621802 101.78203162 177.48148971 101.78319334 151.10667886 101.75906105 C148.27550825 101.75655733 145.44433757 101.75415037 142.61316681 101.75181961 C141.91833963 101.75123902 141.22351245 101.75065843 140.5076299 101.75006025 C129.49741487 101.74140321 118.48731644 101.75288191 107.47711972 101.7727 C96.65556402 101.79175593 85.83419666 101.78894472 75.01265149 101.76428755 C69.22179085 101.75170854 63.43135391 101.74874157 57.64051689 101.77201422 C52.37541636 101.79298014 47.11110127 101.78648292 41.84604362 101.75780516 C39.95030344 101.75233475 38.0545011 101.75697815 36.15881921 101.77281945 C19.10355671 101.90564777 19.10355671 101.90564777 12.62587952 96.60963812 C11.82106916 95.81286725 11.82106916 95.81286725 11 95 C10.11468795 94.13713275 10.11468795 94.13713275 9.21149082 93.25683383 C1.40514826 85.21823063 -0.13259195 75.44482146 -0.11352539 64.59594727 C-0.11367142 63.892668 -0.11381744 63.18938873 -0.1139679 62.46479797 C-0.11327726 60.16530149 -0.1055251 57.86588839 -0.09765625 55.56640625 C-0.09578905 53.96215357 -0.09436657 52.35790031 -0.09336853 50.75364685 C-0.08956715 46.55004273 -0.0797574 42.34647366 -0.06866455 38.1428833 C-0.05839906 33.8459114 -0.05385994 29.54893378 -0.04882812 25.25195312 C-0.03813281 16.83461941 -0.02108524 8.41731408 0 0 Z " fill="#54B847" transform="translate(48,491)"/>
<path d="M0 0 C0.66 0 1.32 0 2 0 C2.42667969 0.79019531 2.85335937 1.58039063 3.29296875 2.39453125 C11.84446889 17.82249542 21.99920612 32.22589673 33 46 C33.73605469 46.92941406 34.47210938 47.85882813 35.23046875 48.81640625 C40.04110538 54.80203023 45.10844692 60.49447618 50.3359375 66.11328125 C52.64973883 68.6204648 54.88948201 71.17354394 57.125 73.75 C67.06204881 84.81300937 78.33748364 94.80487074 90 104 C91.10186341 104.90299543 92.20202078 105.80807523 93.30078125 106.71484375 C124.54839763 132.36785265 160.22822455 152.31497353 197.08007812 168.70117188 C199.62746695 169.83429132 202.16562974 170.98561193 204.703125 172.140625 C219.39803462 178.6964376 234.79927193 183.47428568 250.10113525 188.3894043 C251.84095122 188.94885655 253.57947814 189.51231344 255.31787109 190.07617188 C269.38458843 194.61809717 283.57374375 198.1332402 298.00512695 201.31420898 C300.94355332 201.98707437 303.8561488 202.72952565 306.7734375 203.48828125 C314.09333599 205.33627711 321.50364131 206.64774124 328.9375 207.9375 C329.67842896 208.06661774 330.41935791 208.19573547 331.18273926 208.32876587 C346.07928774 210.91508816 360.98212327 213.22805684 376 215 C377.1695804 215.1385612 378.33916079 215.2771224 379.54418302 215.41988242 C413.14966338 219.16574797 447.03660544 218.44900989 480.79735183 218.43377895 C490.15104399 218.43019411 499.50469127 218.44432873 508.85836992 218.45882157 C526.11178012 218.48507919 543.36517426 218.49775403 560.61860275 218.50238609 C577.67423927 218.50701053 594.72985365 218.51785716 611.7854805 218.53681374 C612.85035541 218.53799386 613.91523033 218.53917399 615.01237418 218.54038988 C620.42146843 218.54641622 625.83056256 218.5525518 631.23965664 218.55872939 C669.44182906 218.60216329 707.64400093 218.63194823 745.84619141 218.65356445 C782.93343907 218.67458139 820.02067357 218.7018691 857.10791016 218.73754883 C858.25333521 218.73864831 859.39876027 218.73974778 860.57889518 218.74088058 C872.08288768 218.75192997 883.58688006 218.76310579 895.09087235 218.7743742 C918.52083682 218.79732148 941.95080206 218.81942548 965.38076782 218.84101868 C966.45777727 218.8420123 967.53478673 218.84300591 968.64443283 218.84402964 C1040.42961115 218.91016008 1112.21480481 218.95657823 1184 219 C1184 223.95 1184 228.9 1184 234 C1095.38010806 234.06394901 1006.76021191 234.12588977 899.07901001 234.16937256 C897.65717554 234.16993036 896.23534106 234.17048817 894.81350659 234.17104598 C864.96107835 234.18273969 835.10864985 234.19360623 805.25622097 234.20351871 C790.25772527 234.20849984 775.25922962 234.21363971 760.26073403 234.21892977 C757.99843423 234.21972677 755.73613443 234.22051924 753.47383464 234.22131152 C718.68630792 234.23353438 683.89878682 234.24913724 649.11126709 234.2746582 C648.36475273 234.2752058 647.61823838 234.27575339 646.84910237 234.27631758 C634.81503694 234.28516576 622.78097173 234.2943007 610.74690655 234.30347376 C576.03502639 234.32992878 541.32315061 234.35422198 506.61126137 234.36455917 C505.89564253 234.36477331 505.18002369 234.36498745 504.44271943 234.36520808 C488.72346902 234.36987391 473.00421855 234.37345204 457.28496766 234.37600393 C450.95761376 234.37705024 444.63025989 234.37825275 438.30290604 234.37950897 C437.61045602 234.37964268 436.91800601 234.37977639 436.20457266 234.37991415 C413.98828629 234.38428141 391.77203228 234.4013022 369.55575893 234.42512883 C346.50142237 234.44979363 323.4471152 234.46002254 300.39276277 234.45400551 C287.13388924 234.45098353 273.87513276 234.45889001 260.61628057 234.48319017 C251.71958193 234.49836823 242.82295852 234.49853168 233.92625436 234.48732725 C228.88252695 234.48138029 223.83901823 234.48115538 218.79531579 234.49953273 C190.67077796 234.59597162 162.97507683 232.87486527 135 230 C134.22393758 229.92101585 133.44787516 229.84203169 132.6482957 229.76065408 C92.15389325 225.63115463 30.0936511 217.0936511 0 187 C-0.19302416 184.51633372 -0.26056147 182.1446742 -0.24050903 179.6602478 C-0.24221788 178.89491466 -0.24392673 178.12958152 -0.24568737 177.34105647 C-0.24899556 174.76292185 -0.23795686 172.18504445 -0.22705078 169.60693359 C-0.22648695 167.76429755 -0.22680267 165.92166105 -0.22793579 164.07902527 C-0.22851142 159.06480175 -0.21672324 154.05067322 -0.20278788 149.03647184 C-0.19031539 143.80073746 -0.18911277 138.56500109 -0.18673706 133.32925415 C-0.18051203 123.40928723 -0.1640874 113.4893642 -0.14403808 103.56941664 C-0.12171087 92.27817648 -0.11069366 80.98693425 -0.10064721 69.69567752 C-0.07972204 46.46376064 -0.04452623 23.23188278 0 0 Z " fill="#FCDF00" transform="translate(48,304)"/>
<path d="M0 0 C389.4 0 778.8 0 1180 0 C1177.72944108 7.94695621 1177.72944108 7.94695621 1173.8125 12.1875 C1173.07644531 13.00605469 1172.34039063 13.82460938 1171.58203125 14.66796875 C1165.92247757 19.77954749 1161.38755386 21.59983496 1153.80560505 21.50369799 C1152.60222498 21.51248459 1152.60222498 21.51248459 1151.3745342 21.52144869 C1148.68189674 21.53622114 1145.99016604 21.52249856 1143.29753304 21.50895119 C1141.34108367 21.51373032 1139.38463793 21.52026033 1137.42819959 21.52838439 C1132.02854093 21.54568066 1126.6291591 21.53794843 1121.22949594 21.52627294 C1115.36394935 21.51795518 1109.49845435 21.5327232 1103.63292015 21.54457796 C1093.34499768 21.56213676 1083.05714774 21.56485072 1072.76921463 21.55757141 C1061.72933678 21.54982242 1050.6895105 21.55072336 1039.64963531 21.56219101 C1038.95256647 21.56290866 1038.25549763 21.56362631 1037.53730549 21.56436571 C1034.69828864 21.5673155 1031.85927186 21.57032429 1029.02025515 21.57340864 C1000.19119363 21.60469199 971.36216751 21.61003511 942.53309205 21.60509652 C938.54864298 21.60441964 934.5641939 21.60377544 930.57974482 21.60316515 C929.78835648 21.60304306 928.99696814 21.60292098 928.18159833 21.60279519 C910.64973583 21.60025229 893.11787819 21.60545252 875.58601713 21.61221728 C871.58387349 21.61375876 867.58172983 21.61524821 863.57958617 21.61674731 C861.97338769 21.6173507 860.36718922 21.61795446 858.76099074 21.6185586 C857.96483216 21.61885796 857.16867359 21.61915732 856.348389 21.61946575 C854.73799629 21.62007281 853.12760357 21.62068217 851.51721086 21.62129384 C805.81619209 21.63864277 760.11517762 21.6479256 714.41415596 21.63939857 C713.56771878 21.63924246 712.7212816 21.63908635 711.84919482 21.6389255 C702.41030878 21.63717987 692.97142277 21.63532135 683.53253676 21.63342424 C682.25422385 21.63316771 682.25422385 21.63316771 680.95008644 21.632906 C673.86851805 21.63148432 673.86851805 21.63148432 670.61087245 21.63082154 C616.09520993 21.61974884 561.57961513 21.63483632 507.06396484 21.67236328 C493.32722042 21.68180751 479.59047596 21.69116844 465.85373116 21.700037 C464.58503714 21.70085697 464.58503714 21.70085697 463.29071295 21.7016935 C437.22848095 21.7184325 411.16625459 21.72779508 385.10401726 21.72945213 C384.28594081 21.72950487 383.46786437 21.7295576 382.62499772 21.72961193 C364.66751642 21.73069343 346.71003557 21.72994874 328.75255441 21.7275325 C322.32729974 21.72668123 315.90204505 21.72595099 309.47679035 21.72527362 C307.87831834 21.72510301 306.27984633 21.72492514 304.68137432 21.72473998 C279.19790671 21.72184095 253.71448509 21.73610447 228.23102852 21.7587479 C201.85621802 21.78203162 175.48148971 21.78319334 149.10667886 21.75906105 C146.27550825 21.75655733 143.44433757 21.75415037 140.61316681 21.75181961 C139.91833963 21.75123902 139.22351245 21.75065843 138.5076299 21.75006025 C127.49741487 21.74140321 116.48731644 21.75288191 105.47711972 21.7727 C94.65556402 21.79175593 83.83419666 21.78894472 73.01265149 21.76428755 C67.22179085 21.75170854 61.43135391 21.74874157 55.64051689 21.77201422 C50.37541636 21.79298014 45.11110127 21.78648292 39.84604362 21.75780516 C37.95030344 21.75233475 36.0545011 21.75697815 34.15881921 21.77281945 C17.10727794 21.90561879 17.10727794 21.90561879 10.63198303 16.62794866 C6.11335345 12.12048943 2.50204535 7.97710833 0 2 C0 1.34 0 0.68 0 0 Z " fill="#53B948" transform="translate(50,571)"/>
<path d="M0 0 C0.6002449 0.40421173 1.20048981 0.80842346 1.81892395 1.22488403 C2.6157811 1.75927094 3.41263824 2.29365784 4.23364258 2.84423828 C5.01951248 3.37220001 5.80538239 3.90016174 6.61506653 4.44412231 C16.6841105 11.01294321 27.60149587 16.13303751 38.875 20.25 C39.67381592 20.54245605 40.47263184 20.83491211 41.2956543 21.13623047 C58.01006513 26.99448753 75.14042488 31.15855402 92.5 34.5625 C93.46001923 34.75321075 94.42003845 34.94392151 95.40914917 35.14041138 C114.50509739 38.91877931 133.66156646 41.80143447 153 44 C153.74684933 44.08629578 154.49369866 44.17259156 155.26317978 44.26150236 C167.29728679 45.6330803 179.1432408 46.29117629 191.25011826 46.26171303 C192.99761765 46.26491113 194.74511562 46.26897872 196.49261123 46.27382231 C201.25138341 46.28454018 206.01008235 46.28308232 210.76886227 46.27947159 C215.96220501 46.27775288 221.1555284 46.28764988 226.34886289 46.29602563 C235.43612877 46.30910474 244.5233761 46.31488082 253.61065102 46.31578636 C267.12294531 46.31716637 280.63521217 46.32997383 294.14749724 46.3450741 C316.8808894 46.37015792 339.61427679 46.38606112 362.34767914 46.39665604 C384.84964243 46.4071713 407.35159694 46.42181067 429.85355377 46.44193649 C430.90316307 46.44287247 430.90316307 46.44287247 431.97397659 46.44382735 C438.36535188 46.44952895 444.75672712 46.4552811 451.14810231 46.46109388 C467.03382986 46.47554089 482.91955793 46.48935427 498.80528641 46.50273705 C499.52855596 46.50334687 500.2518255 46.50395669 500.99701231 46.50458498 C536.14953491 46.53416829 571.30206163 46.55644983 606.45458984 46.578125 C618.64788823 46.5856475 630.84118659 46.59320235 643.03448486 46.60089111 C643.79075098 46.60136796 644.54701709 46.60184481 645.32620036 46.60233611 C680.50656862 46.62456275 715.68693227 46.65198848 750.86729572 46.68074883 C753.15223207 46.6826167 755.43716842 46.68448233 757.72210477 46.6863475 C772.86494976 46.69871205 788.00779468 46.71116607 803.15063955 46.72367998 C833.27916707 46.74857714 863.40769501 46.77294876 893.53622325 46.79695912 C894.97090695 46.79810247 896.40559066 46.79924618 897.84027436 46.80039027 C983.47871532 46.86867835 1069.11716357 46.92615471 1184 47 C1184.02703381 48.93742341 1184.04641125 50.87495479 1184.0625 52.8125 C1184.07410156 53.89144531 1184.08570313 54.97039063 1184.09765625 56.08203125 C1184 59 1184 59 1183 62 C1146.86791995 62.00549791 1110.73583987 62.01076988 1074.60375977 62.01586914 C1073.8967571 62.01596894 1073.18975444 62.01606874 1072.46132746 62.01617156 C996.72877068 62.02685552 920.9962139 62.0360795 845.26365662 62.04234314 C843.58207886 62.04248259 841.9005011 62.04262204 840.21892334 62.04276149 C804.92479234 62.04568397 769.63066133 62.04840071 734.3365303 62.05087968 C716.60801219 62.05212511 698.87949408 62.05341008 681.15097597 62.05473244 C678.4766394 62.05493169 675.80230283 62.05512981 673.12796625 62.05532788 C631.93044408 62.05838909 590.7329222 62.0623002 549.53540039 62.06866455 C548.64912591 62.06880145 547.76285142 62.06893835 546.84972013 62.0690794 C532.55968838 62.07129186 518.26965664 62.07357543 503.97962491 62.07586844 C462.83688278 62.0824692 421.69414088 62.0885471 380.55139828 62.09113979 C379.70593417 62.09119333 378.86047006 62.09124686 377.98938583 62.09130202 C359.43264885 62.09246759 340.87591187 62.09336253 322.31917486 62.09400098 C314.85339235 62.09426262 307.38760983 62.09456324 299.92182732 62.09487724 C298.69615548 62.09492738 298.69615548 62.09492738 297.44572259 62.09497854 C271.08646801 62.09607628 244.72721512 62.10035173 218.36796122 62.10628221 C191.83108479 62.11223818 165.29421001 62.11510168 138.7573329 62.11362399 C135.09595941 62.11342089 131.43458592 62.11325351 127.77321243 62.11310768 C127.05543544 62.1130778 126.33765844 62.11304792 125.59813063 62.11301713 C114.20090272 62.11263546 102.80367825 62.11562989 91.40645127 62.12000986 C80.21828057 62.12424088 69.0301143 62.1248666 57.84194278 62.12183181 C51.84913473 62.12031132 45.85633826 62.1204302 39.86353142 62.12488318 C34.4246042 62.12889422 28.98569774 62.12840487 23.54677089 62.12413998 C21.57901936 62.12341872 19.61126636 62.12441692 17.64351672 62.12723524 C14.99458671 62.13079219 12.34573252 62.1283202 9.69680506 62.1241985 C8.53270119 62.12796181 8.53270119 62.12796181 7.34508007 62.13180115 C2.11415501 62.11415501 2.11415501 62.11415501 1 61 C-0.2930139 54.5360652 -0.12726635 48.073044 -0.09765625 41.50390625 C-0.0962413 40.31522446 -0.09482635 39.12654266 -0.09336853 37.90184021 C-0.08779114 34.12203406 -0.07524275 30.34228811 -0.0625 26.5625 C-0.05748208 23.9928394 -0.05291968 21.42317787 -0.04882812 18.85351562 C-0.03782911 12.56899003 -0.0211135 6.28449932 0 0 Z " fill="#DE2127" transform="translate(48,509)"/>
<path d="M0 0 C1.02609375 -0.03738281 2.0521875 -0.07476562 3.109375 -0.11328125 C9.71449879 0.78218951 13.82365724 5.64274697 18.0625 10.375 C18.58457031 10.94863281 19.10664062 11.52226562 19.64453125 12.11328125 C23.55891834 16.44980812 27.2505646 20.94363849 30.90625 25.5 C33.58208278 28.71099934 36.39359707 31.76277636 39.25 34.8125 C43.6960275 39.55981125 47.86522555 44.44806604 51.9375 49.5234375 C56.17384264 54.63281021 60.72159941 59.462456 65.25 64.3125 C64.92 64.9725 64.59 65.6325 64.25 66.3125 C63.63125 65.65894531 63.63125 65.65894531 63 64.9921875 C61.12188678 63.05538324 59.19999546 61.17690406 57.25 59.3125 C56.63640625 58.71824219 56.0228125 58.12398438 55.390625 57.51171875 C50.70550348 53.45579744 46.97406688 52.47991321 40.7890625 52.86328125 C31.28831131 54.54418338 24.24796636 65.43747373 18.578125 72.4765625 C15.61275857 76.08873705 12.49517295 79.54310879 9.3515625 83 C5.24724156 87.51627881 1.2630967 92.13697387 -2.72265625 96.7578125 C-3.83571781 98.0470647 -4.94900609 99.33612119 -6.0625 100.625 C-6.90844727 101.60424438 -6.90844727 101.60424438 -7.77148438 102.60327148 C-11.1271715 106.47569975 -14.53143984 110.29091431 -18 114.0625 C-21.94705014 118.37125731 -25.6658143 122.8177753 -29.3359375 127.36328125 C-32.08861873 130.7261847 -34.91181769 134.02179569 -37.75 137.3125 C-41.30471545 141.43701706 -44.81792786 145.58458505 -48.25 149.8125 C-53.11583047 155.80054003 -58.14344545 161.64328469 -63.1796875 167.48779297 C-65.29557905 169.94646421 -67.40420358 172.41130942 -69.51196289 174.87695312 C-70.53499883 176.07154209 -71.56018413 177.26429416 -72.58764648 178.45507812 C-74.7145791 180.92055487 -76.81269784 183.39084311 -78.84765625 185.93359375 C-83.04354454 191.10698568 -83.04354454 191.10698568 -87.1875 192.3125 C-88.033125 192.3125 -88.87875 192.3125 -89.75 192.3125 C-92.79235502 187.8961782 -94.83692189 184.67876467 -94.95532227 179.27856445 C-94.97526749 178.46954178 -94.99521271 177.6605191 -95.01576233 176.82698059 C-95.03247482 175.95208481 -95.04918732 175.07718903 -95.06640625 174.17578125 C-95.08718735 173.26354294 -95.10796844 172.35130463 -95.12937927 171.41142273 C-95.17266338 169.47216458 -95.21370284 167.53285524 -95.25268555 165.59350586 C-95.31136459 162.68134887 -95.3766992 159.76940592 -95.44335938 156.85742188 C-96.33463331 116.63755606 -87.94421761 94.73408893 -62.75 63.3125 C-62.25000488 62.68778809 -61.75000977 62.06307617 -61.23486328 61.41943359 C-55.13745733 53.82038616 -48.95020988 46.30193458 -42.62646484 38.89013672 C-39.83717058 35.6175137 -37.12294782 32.29554617 -34.4375 28.9375 C-11.05929088 0.2613514 -11.05929088 0.2613514 0 0 Z " fill="#EC3425" transform="translate(1089.75,248.6875)"/>
<path d="M0 0 C3.44376863 1.90136411 6.17463356 4.28016507 9 7 C9.53463867 7.50966309 10.06927734 8.01932617 10.62011719 8.54443359 C14.78284916 12.59197764 18.423229 16.83601029 21.875 21.5 C22.38748291 22.1914209 22.89996582 22.8828418 23.42797852 23.59521484 C35.31622053 39.87190802 43.25009264 55.27896927 43.078125 75.9296875 C43.07150848 77.36282791 43.07150848 77.36282791 43.0647583 78.82492065 C43.04855106 81.88333964 43.0243829 84.94163639 43 88 C42.98880079 90.01204354 42.97773235 92.02408782 42.96679688 94.03613281 C42.93451677 99.05568871 42.87162943 104.07423841 42.79248047 109.09326172 C42.7637099 111.14655459 42.74278544 113.19996979 42.72900391 115.25341797 C42.70769946 118.27628188 42.66126595 121.29783849 42.609375 124.3203125 C42.60814636 125.23684601 42.60691772 126.15337952 42.60565186 127.09768677 C42.46019374 133.36523768 42.46019374 133.36523768 40.11425781 136.60107422 C38 138 38 138 35.5625 138.0625 C32.22602325 136.67908281 30.33982078 134.65057823 28 132 C27.01 130.92685547 27.01 130.92685547 26 129.83203125 C21.31133788 124.71194709 16.87215742 119.43290307 12.50390625 114.0390625 C9.62012327 110.53893276 6.66398565 107.10879321 3.6875 103.6875 C3.13642578 103.05400635 2.58535156 102.4205127 2.01757812 101.76782227 C0.89837515 100.48168345 -0.22092837 99.19563212 -1.34033203 97.90966797 C-7.54872623 90.76608759 -13.72823972 83.60354128 -19.6875 76.25 C-23.23511846 71.87779995 -26.95096918 67.70015578 -30.7421875 63.5390625 C-33.89360844 59.99507701 -36.86448008 56.31462303 -39.84765625 52.62890625 C-42.81176863 49.00849313 -45.88739268 45.4929259 -49 42 C-47.43767979 38.32043709 -45.16415918 35.83484207 -42.4375 32.9375 C-39.02391359 29.26749396 -35.76044817 25.54001115 -32.625 21.625 C-29.12812053 17.31445941 -25.53118961 13.119217 -21.8125 9 C-21.32539551 8.44779785 -20.83829102 7.8955957 -20.33642578 7.32666016 C-14.60384484 1.0582877 -8.40722002 -1.76526221 0 0 Z " fill="#FDDB00" transform="translate(1141,306)"/>
<path d="M0 0 C1.5631897 0.00785522 1.5631897 0.00785522 3.15795898 0.01586914 C4.28266602 0.0190918 5.40737305 0.02231445 6.56616211 0.02563477 C7.75016602 0.03401367 8.93416992 0.04239258 10.15405273 0.05102539 C11.34192383 0.05553711 12.52979492 0.06004883 13.75366211 0.06469727 C16.69967499 0.07652864 19.64558954 0.09301252 22.59155273 0.11352539 C26.08098294 8.38977829 28.9056583 16.86269866 31.68920898 25.39477539 C32.16930345 26.85876433 32.64964988 28.32267067 33.13023376 29.78649902 C34.13145348 32.83838314 35.13055025 35.89095054 36.12792969 38.9440918 C37.39788009 42.83147703 38.67176235 46.71755888 39.94707584 50.60318756 C40.93736528 53.62108256 41.92625649 56.63943417 42.91467094 59.65794373 C43.38362153 61.08996568 43.85282913 62.5219035 44.32231331 63.95375061 C51.59155273 86.13682663 51.59155273 86.13682663 51.59155273 90.11352539 C44.00155273 90.11352539 36.41155273 90.11352539 28.59155273 90.11352539 C27.76655273 87.34977539 26.94155273 84.58602539 26.09155273 81.73852539 C25.83051758 80.86921387 25.56948242 79.99990234 25.30053711 79.10424805 C25.09750977 78.4189502 24.89448242 77.73365234 24.68530273 77.02758789 C24.47583008 76.32585449 24.26635742 75.62412109 24.05053711 74.90112305 C23.59155273 73.11352539 23.59155273 73.11352539 23.59155273 71.11352539 C14.02155273 70.78352539 4.45155273 70.45352539 -5.40844727 70.11352539 C-5.73844727 72.09352539 -6.06844727 74.07352539 -6.40844727 76.11352539 C-7.65939871 80.80584927 -9.04514989 85.45192792 -10.40844727 90.11352539 C-17.33844727 90.11352539 -24.26844727 90.11352539 -31.40844727 90.11352539 C-29.15859702 79.98919929 -29.15859702 79.98919929 -27.65600586 75.43969727 C-27.32160492 74.41992798 -26.98720398 73.40015869 -26.64266968 72.3494873 C-26.28436066 71.27130737 -25.92605164 70.19312744 -25.55688477 69.08227539 C-24.99029648 67.35914124 -24.99029648 67.35914124 -24.41226196 65.60119629 C-23.20670975 61.93728922 -21.99534338 58.27533844 -20.78344727 54.61352539 C-19.59873806 51.02248187 -18.41528701 47.43102691 -17.23248291 43.83935547 C-16.45102186 41.46653121 -15.66875922 39.09397079 -14.88568115 36.72167969 C-11.80870728 27.38330001 -8.80757633 18.02175331 -5.86386108 8.64050293 C-5.55453644 7.66286987 -5.24521179 6.68523682 -4.92651367 5.67797852 C-4.65626373 4.81724731 -4.38601379 3.95651611 -4.10757446 3.06970215 C-3.11139112 0.28235428 -3.03274876 0.14295268 0 0 Z " fill="#FCFDFB" transform="translate(595.408447265625,324.886474609375)"/>
<path d="M0 0 C31.96100279 0 31.96100279 0 41.625 8.33984375 C45.56282161 13.09431586 45.39629745 18.42969214 45.4375 24.3125 C45.47037109 25.12912109 45.50324219 25.94574219 45.53710938 26.78710938 C45.59063443 32.89383184 44.18464333 37.42867532 40 42 C37.82983398 43.2199707 37.82983398 43.2199707 36 44 C36 44.66 36 45.32 36 46 C36.7425 46.226875 37.485 46.45375 38.25 46.6875 C42.83711223 48.87680356 44.51875471 52.03750942 46.75 56.5 C49.26764134 63.80392652 49.33306992 73.0666455 46.09375 80.16015625 C41.55226057 87.79959026 36.48785867 91.48349919 28 94 C18.93956385 96.26510904 9.33928382 95 0 95 C0 63.65 0 32.3 0 0 Z " fill="#F7FBF7" transform="translate(229,321)"/>
<path d="M0 0 C3.375 2.0625 3.375 2.0625 4.375 3.0625 C4.705 2.0725 5.035 1.0825 5.375 0.0625 C8.675 0.0625 11.975 0.0625 15.375 0.0625 C15.4447738 9.27738863 15.49794944 18.49218512 15.53043652 27.70728111 C15.54603542 31.98707849 15.56716697 36.26669398 15.60131836 40.54638672 C15.63411939 44.68315014 15.65189635 48.81973955 15.65963173 52.95662308 C15.66513826 54.52814087 15.67589037 56.09965008 15.69219017 57.67109299 C15.81771852 70.28457757 14.82969968 81.06699056 6.375 91.0625 C-0.06462816 97.00900348 -6.73401319 98.50662264 -15.3671875 98.3984375 C-20.74788792 97.84359309 -25.62144524 96.04972742 -30.625 94.0625 C-30.76785714 86.63392857 -30.76785714 86.63392857 -29.625 83.0625 C-27.02601483 83.50804032 -24.76526504 83.99959764 -22.3515625 85.08203125 C-16.29208499 87.26101242 -9.18939196 86.78232932 -3.0625 85.0625 C1.44974984 81.36014116 3.78256105 75.83877979 4.375 70.0625 C4.41324623 67.72948014 4.42074284 65.39538492 4.375 63.0625 C3.42625 63.866875 2.4775 64.67125 1.5 65.5 C-3.4563551 69.70212715 -7.63395546 69.45626261 -14.0625 69.41015625 C-20.24495562 68.80682451 -23.50406976 66.06560078 -27.875 61.9375 C-35.97326424 48.63320875 -36.76486044 31.21074285 -33.5 16.25 C-31.21763399 8.86649336 -27.69217413 3.91159208 -20.9375 0.0625 C-13.90750431 -3.05606952 -6.97890646 -3.38975457 0 0 Z " fill="#F9FCF9" transform="translate(487.625,345.9375)"/>
<path d="M0 0 C3.3 0 6.6 0 10 0 C10 33.66 10 67.32 10 102 C6.7 102 3.4 102 0 102 C-0.33 100.02 -0.66 98.04 -1 96 C-1.94875 96.804375 -2.8975 97.60875 -3.875 98.4375 C-9.5949858 103.28705318 -15.72236546 102.57047527 -23 102 C-28.72926417 100.36306738 -32.79374252 95.83192725 -36 91 C-40.02282548 82.80831734 -40.6455548 75.07638808 -40.5625 66.0625 C-40.58634766 64.87720703 -40.61019531 63.69191406 -40.63476562 62.47070312 C-40.61731472 51.86636785 -38.05098175 43.07946819 -31 35 C-25.12784146 30.89253159 -19.14460729 28.74969372 -12 30 C-6.8546187 31.88004317 -5.09670429 33.90329571 -1 38 C-0.67 25.46 -0.34 12.92 0 0 Z " fill="#F7FBF6" transform="translate(383,314)"/>
<path d="M0 0 C7.94715948 5.28378711 12.57312776 12.85665239 15 22 C16.29484633 35.18999647 15.91530223 48.35997823 8.0625 59.5 C3.15233696 65.4315754 -1.5741657 68.55844345 -9.3671875 69.3359375 C-17.61462556 69.42777979 -23.38526829 69.06484546 -29.671875 63.52734375 C-39.24438615 53.50464025 -39.4615445 39.99003145 -39.28515625 26.94921875 C-38.92097518 17.24809395 -35.2182343 9.03075722 -28.1875 2.3125 C-19.22925025 -4.18662237 -9.89880011 -4.94060893 0 0 Z " fill="#FAFCF9" transform="translate(323,347)"/>
<path d="M0 0 C1.09538086 -0.01836914 1.09538086 -0.01836914 2.21289062 -0.03710938 C9.97895555 -0.05774551 16.58987283 1.20939827 22.8125 6.1875 C30.31291296 13.86234116 31.26069657 21.44306003 31.32421875 31.6875 C31.34216995 32.76378662 31.36012115 33.84007324 31.37861633 34.94897461 C31.43248001 38.36177743 31.46653865 41.77444231 31.5 45.1875 C31.53319415 47.51173784 31.56768573 49.83595754 31.60351562 52.16015625 C31.68819296 57.8358376 31.75511843 63.51147972 31.8125 69.1875 C25.8725 69.1875 19.9325 69.1875 13.8125 69.1875 C13.3175 64.7325 13.3175 64.7325 12.8125 60.1875 C12.14154297 61.01894531 12.14154297 61.01894531 11.45703125 61.8671875 C10.85246094 62.59164062 10.24789062 63.31609375 9.625 64.0625 C9.03332031 64.78179687 8.44164062 65.50109375 7.83203125 66.2421875 C3.01835001 70.87896362 -2.59227057 70.67105001 -8.953125 70.5703125 C-14.98999778 69.8558034 -18.4829004 66.98181537 -22.5625 62.6875 C-26.66297011 56.37908445 -26.812585 50.54201568 -26.1875 43.1875 C-24.5915416 36.29246099 -19.9364262 32.02760414 -14.125 28.375 C-6.23014034 24.51796933 3.25838047 25.78282913 11.8125 26.1875 C10.94045751 21.47153283 10.94045751 21.47153283 8.1796875 17.76953125 C4.76543797 16.93005405 1.43042283 16.85897742 -2.0625 16.875 C-2.75730469 16.85888672 -3.45210937 16.84277344 -4.16796875 16.82617188 C-8.95816441 16.82166133 -12.0683168 17.81566711 -16.1875 20.1875 C-17.1775 20.5175 -18.1675 20.8475 -19.1875 21.1875 C-19.1875 15.5775 -19.1875 9.9675 -19.1875 4.1875 C-12.52105656 1.67392297 -7.19231415 0.00618428 0 0 Z " fill="#FAFCFA" transform="translate(942.1875,345.8125)"/>
<path d="M0 0 C6.6 0 13.2 0 20 0 C20.02578125 2.96226562 20.0515625 5.92453125 20.078125 8.9765625 C20.11657412 11.85605233 20.16172514 14.73536482 20.20751953 17.61474609 C20.23568703 19.61075325 20.25692252 21.60687106 20.27099609 23.60302734 C20.29248403 26.47811364 20.33916426 29.35187529 20.390625 32.2265625 C20.39185364 33.11429352 20.39308228 34.00202454 20.39434814 34.91665649 C20.52189388 40.35272338 21.19013638 43.80342091 25 48 C29.92145036 48.85930086 31.7785606 48.84969698 35.875 46 C40.00516205 40.16918298 40.30349653 33.49528538 40.4140625 26.5625 C40.43342865 25.79695801 40.4527948 25.03141602 40.4727478 24.24267578 C40.53190946 21.82855925 40.57867144 19.41439335 40.625 17 C40.66323837 15.35024111 40.70229339 13.70050093 40.7421875 12.05078125 C40.83907568 8.03395876 40.91914324 4.01730417 41 0 C47.6 0 54.2 0 61 0 C61 22.44 61 44.88 61 68 C55.06 68 49.12 68 43 68 C42.67 64.37 42.34 60.74 42 57 C41.649375 57.70125 41.29875 58.4025 40.9375 59.125 C37.9228052 63.59841809 34.16623004 67.27792332 29 69 C26.73236426 69.14648082 24.45967634 69.2209626 22.1875 69.25 C20.98480469 69.27578125 19.78210938 69.3015625 18.54296875 69.328125 C13.22175154 68.83531106 9.27372978 66.89423036 5.8125 62.8125 C5.34457031 62.28269531 4.87664063 61.75289063 4.39453125 61.20703125 C-0.16453179 53.99170739 -0.41272456 47.37117758 -0.29296875 39.0625 C-0.28872391 37.94182129 -0.28447906 36.82114258 -0.28010559 35.66650391 C-0.26340311 32.11075126 -0.22576568 28.55557941 -0.1875 25 C-0.17244231 22.57943531 -0.1587558 20.15886167 -0.14648438 17.73828125 C-0.11352706 11.82529935 -0.06180241 5.91274792 0 0 Z " fill="#FCFDFC" transform="translate(651,347)"/>
<path d="M0 0 C7.34983607 5.69612295 10.11718039 13.44030665 11.9375 22.2109375 C12.37915452 27.42246089 12.25 32.66823342 12.25 37.8984375 C-0.62 37.8984375 -13.49 37.8984375 -26.75 37.8984375 C-23.80298344 44.93391302 -23.80298344 44.93391302 -18.75 48.8984375 C-10.8779096 51.19925724 -4.5210507 49.80569854 2.96484375 46.7734375 C5.25 45.8984375 5.25 45.8984375 7.25 45.8984375 C7.25 51.1784375 7.25 56.4584375 7.25 61.8984375 C-3.63176299 66.06977998 -15.54856158 68.32777352 -27.046875 64.921875 C-29.44811943 63.73580578 -31.57671581 62.45792804 -33.75 60.8984375 C-34.6575 60.3415625 -35.565 59.7846875 -36.5 59.2109375 C-45.17730564 50.29259559 -47.17186157 40.46023916 -47.11132812 28.51245117 C-46.88871358 17.99295431 -44.34300208 10.47832192 -36.97265625 2.77734375 C-26.9791531 -5.67059125 -11.11941271 -6.99927318 0 0 Z " fill="#FBFDFB" transform="translate(853.75,350.1015625)"/>
<path d="M0 0 C6.44800412 7.57640484 7.09909234 15.16783858 7.109375 24.84765625 C7.12591125 26.05570419 7.14244751 27.26375214 7.15948486 28.50840759 C7.20778392 32.33899106 7.22929676 36.169178 7.25 40 C7.27817463 42.60874371 7.30810412 45.2174691 7.33984375 47.82617188 C7.41353835 54.19654303 7.46528675 60.5668035 7.5 66.9375 C4.53 66.9375 1.56 66.9375 -1.5 66.9375 C-1.83 64.9575 -2.16 62.9775 -2.5 60.9375 C-3.86125 62.113125 -3.86125 62.113125 -5.25 63.3125 C-10.85570858 68.15379377 -15.60330393 68.48976953 -22.9375 68.3828125 C-28.16792308 67.72900962 -31.90739596 65.79181692 -35.5 61.9375 C-39.64789831 55.27055842 -39.21956824 48.55020494 -38.5 40.9375 C-36.89896164 34.73347635 -32.88874992 30.27686047 -27.5 26.9375 C-19.56251438 23.11307511 -11.09378503 23.62812374 -2.5 23.9375 C-3.52086926 15.07615031 -3.52086926 15.07615031 -8.5 7.9375 C-12.25926991 6.05786504 -16.407293 6.40885868 -20.5 6.9375 C-24.0303393 8.29569998 -27.24182073 10.02645254 -30.5 11.9375 C-31.16 12.2675 -31.82 12.5975 -32.5 12.9375 C-32.5 9.3075 -32.5 5.6775 -32.5 1.9375 C-22.57604465 -3.36433916 -10.23901933 -7.52945696 0 0 Z " fill="#FBFCFB" transform="translate(548.5,348.0625)"/>
<path d="M0 0 C6.36306807 5.85503869 9.3074321 11.53716049 11 20 C11 25.28 11 30.56 11 36 C-1.54 36 -14.08 36 -27 36 C-24.49531854 47.32189337 -24.49531854 47.32189337 -18 56 C-14.06508346 58.35628402 -10.48618686 58.72086934 -6 58 C-1.57355579 56.54480013 2.71574952 54.8286435 7 53 C7 56.96 7 60.92 7 65 C-1.52918814 69.35533011 -13.59101301 69.81146911 -22.75 66.875 C-26.69350619 64.59990027 -28.39470847 62.72184504 -31 59 C-31.53625 58.278125 -32.0725 57.55625 -32.625 56.8125 C-38.76207151 44.25939919 -39.06668074 28.0935685 -35.4375 14.6875 C-32.31877912 6.20985027 -27.09410274 0.81797299 -19 -3 C-12.16661163 -5.56252064 -5.79032009 -4.06118718 0 0 Z " fill="#FAFCF9" transform="translate(437,348)"/>
<path d="M0 0 C-0.33 6.6 -0.66 13.2 -1 20 C-2.69125 19.9175 -4.3825 19.835 -6.125 19.75 C-11.26518289 19.76321384 -14.15273127 20.34509471 -18 24 C-21.19953226 29.07943179 -21.46650871 33.30059038 -21.51171875 39.1171875 C-21.52966995 39.97434357 -21.54762115 40.83149963 -21.56611633 41.71463013 C-21.62001405 44.43470436 -21.65404858 47.1546052 -21.6875 49.875 C-21.72069126 51.72658652 -21.75518259 53.57815022 -21.79101562 55.4296875 C-21.87816113 59.95314711 -21.93840336 64.47583268 -22 69 C-28.93 69 -35.86 69 -43 69 C-43 46.56 -43 24.12 -43 1 C-36.73 1 -30.46 1 -24 1 C-23.67 3.64 -23.34 6.28 -23 9 C-22.29875 8.071875 -21.5975 7.14375 -20.875 6.1875 C-14.89802415 -0.81599248 -8.71263275 -0.29042109 0 0 Z " fill="#F9FCF9" transform="translate(763,346)"/>
<path d="M0 0 C0.99386719 0.00902344 1.98773437 0.01804687 3.01171875 0.02734375 C4.15060547 0.04474609 4.15060547 0.04474609 5.3125 0.0625 C5.49701025 13.6957574 5.49701025 13.6957574 4.3125 20.0625 C3.20841797 20.01029297 3.20841797 20.01029297 2.08203125 19.95703125 C-5.37810114 19.56181019 -5.37810114 19.56181019 -11.6875 23.0625 C-15.70307867 28.65562743 -15.86161894 33.8321484 -16.00390625 40.546875 C-16.02468735 41.36246887 -16.04546844 42.17806274 -16.06687927 43.01837158 C-16.13211297 45.61633105 -16.19113768 48.21438913 -16.25 50.8125 C-16.29321014 52.576833 -16.33682522 54.34115613 -16.38085938 56.10546875 C-16.48852743 60.42437968 -16.5877951 64.74336854 -16.6875 69.0625 C-23.2875 69.0625 -29.8875 69.0625 -36.6875 69.0625 C-36.6875 46.6225 -36.6875 24.1825 -36.6875 1.0625 C-30.7475 1.0625 -24.8075 1.0625 -18.6875 1.0625 C-18.3575 4.3625 -18.0275 7.6625 -17.6875 11.0625 C-17.130625 10.155 -16.57375 9.2475 -16 8.3125 C-11.54085539 2.04559407 -7.58780431 -0.08926829 0 0 Z " fill="#FCFDFC" transform="translate(909.6875,345.9375)"/>
<path d="M0 0 C0 6.6 0 13.2 0 20 C-3.3 20 -6.6 20 -10 20 C-14.9911095 22.35943358 -16.98582915 24.91156838 -19 30 C-20.29293923 33.92834904 -20.22454692 37.95236792 -20.31640625 42.046875 C-20.33718735 42.81807678 -20.35796844 43.58927856 -20.37937927 44.3838501 C-20.44458572 46.83914572 -20.50362484 49.29454521 -20.5625 51.75 C-20.60571274 53.41797935 -20.6493279 55.08594832 -20.69335938 56.75390625 C-20.80099226 60.83583273 -20.90027992 64.91784188 -21 69 C-27.6 69 -34.2 69 -41 69 C-41 46.56 -41 24.12 -41 1 C-35.06 1 -29.12 1 -23 1 C-22.67 4.3 -22.34 7.6 -22 11 C-21.443125 10.0925 -20.88625 9.185 -20.3125 8.25 C-14.37840254 -0.08981264 -9.60744627 -0.11171449 0 0 Z " fill="#FCFDFC" transform="translate(807,346)"/>
<path d="M0 0 C6.21518461 3.10759231 9.25776493 7.7333821 11.75 14.0625 C14.57387782 23.21309863 14.08378966 34.48331242 9.96484375 43.1875 C7.39236718 47.68726609 4.79174373 50.74506177 0 53 C-4.21652085 53.81119439 -7.19819527 53.35279408 -11.125 51.625 C-16.66860913 46.56344384 -20.95209806 39.58806665 -21.30859375 31.97265625 C-21.66942222 21.87462867 -21.43130908 13.38441813 -15 5 C-10.07831757 0.70376586 -6.60788664 -0.87529842 0 0 Z " fill="#56B94A" transform="translate(315,354)"/>
<path d="M0 0 C5.67871479 3.38538766 7.93600498 7.81859952 10 14 C12.62232415 24.36773192 12.10002961 36.67461376 6.828125 46.09375 C4.69786889 49.30228389 2.79139836 51.96598227 -1 53 C-4.83949223 53.50080333 -6.66352927 53.17496478 -10.125 51.375 C-15.75451637 46.72452996 -18.48722623 41.19259211 -19.20654297 33.90844727 C-19.30366257 31.66387737 -19.32916434 29.43409049 -19.3125 27.1875 C-19.30686035 26.39432373 -19.3012207 25.60114746 -19.29541016 24.78393555 C-19.10908959 15.77137002 -17.64449154 9.02775802 -11.40234375 2.27734375 C-8.10699723 -0.72426715 -4.22000441 -0.66921712 0 0 Z " fill="#56BA4A" transform="translate(372,354)"/>
<path d="M0 0 C6.27679898 5.99783013 8.04952037 12.60944536 8.35522461 21.10131836 C8.42632794 30.62477554 8.03787502 39.47274701 1.1875 46.75 C-2.29487013 49.5908809 -4.55629057 50.04745164 -9.09375 49.95703125 C-12.67703434 49.49575024 -14.54309806 48.09150177 -17.1875 45.6875 C-23.47946924 36.05857583 -23.5170691 23.59648089 -21.65625 12.52734375 C-20.13873002 7.0593234 -18.08059236 2.85731927 -13.4375 -0.625 C-8.53956484 -2.1215913 -4.64172453 -1.91129833 0 0 Z " fill="#56BA4A" transform="translate(485.1875,355.3125)"/>
<path d="M0 0 C17.22222222 0 17.22222222 0 23 4 C26.48557092 7.49369579 26.43269501 10.56039836 26.4375 15.375 C26.46650391 17.30472656 26.46650391 17.30472656 26.49609375 19.2734375 C25.92534412 23.56080089 24.71368604 25.67291295 22 29 C15.14351395 33.5709907 8.392788 32 0 32 C0 21.44 0 10.88 0 0 Z " fill="#56BA4B" transform="translate(240,372)"/>
<path d="M0 0 C16.66666667 0 16.66666667 0 21.58203125 3.515625 C24.58166555 6.65573804 25.30839909 9.59922136 25.375 13.875 C25.25458397 18.69164137 24.35882079 21.38280838 21 25 C14.00262411 30.15683389 8.67989117 30 0 30 C0 20.1 0 10.2 0 0 Z " fill="#58BB4D" transform="translate(240,332)"/>
<path d="M0 0 C0.4326552 9.08575915 -1.03746753 16.80988732 -7 24 C-10.90649118 26.32277854 -14.52324921 26.47123693 -19 26 C-24.53846154 22.92307692 -24.53846154 22.92307692 -26 20 C-26.55604279 15.4422722 -26.40693381 11.89864549 -24.5 7.6875 C-17.80120138 0.48629149 -9.46148982 -0.19309163 0 0 Z " fill="#59BB4D" transform="translate(546,381)"/>
<path d="M0 0 C4.29916275 2.02080461 5.92874313 3.98882948 7.8125 8.3125 C8.23144531 9.23675781 8.65039062 10.16101563 9.08203125 11.11328125 C10 14 10 14 10 20 C0.76 20 -8.48 20 -18 20 C-16.92170521 11.37364165 -15.40959463 7.58904698 -9.625 1.5 C-6.14436234 -0.48893581 -3.95421704 -0.49427713 0 0 Z " fill="#56B94A" transform="translate(428,354)"/>
<path d="M0 0 C2.99396124 5.4209216 4.09729352 11.5444288 5.625 17.5 C6.11226562 19.35431641 6.11226562 19.35431641 6.609375 21.24609375 C6.91617188 22.43332031 7.22296875 23.62054688 7.5390625 24.84375 C7.95986084 26.47086914 7.95986084 26.47086914 8.38916016 28.13085938 C9 31 9 31 9 35 C2.73 35 -3.54 35 -10 35 C-8.58439547 27.32443575 -6.65137909 19.91904192 -4.4375 12.4375 C-4.12103516 11.34630859 -3.80457031 10.25511719 -3.47851562 9.13085938 C-1.13084904 1.13084904 -1.13084904 1.13084904 0 0 Z " fill="#5DBC52" transform="translate(605,344)"/>
<path d="M0 0 C0.20258986 5.38738958 -0.573765 7.74035649 -4 12 C-6.70427712 14.70427712 -8.23162525 15.85592973 -12 16.5625 C-16.10389613 15.79301948 -17.53959272 14.32878632 -20 11 C-20.6875 8 -20.6875 8 -20 5 C-14.93054939 -1.85866847 -7.87647303 -0.48553601 0 0 Z " fill="#58BA4C" transform="translate(954,385)"/>
<path d="M0 0 C2.85746217 1.26998319 4.48137263 2.2838003 6.3125 4.8125 C7 7 7 7 7 13 C0.07 13 -6.86 13 -14 13 C-12.85279188 4.96954315 -12.85279188 4.96954315 -9 1 C-5.93570224 -0.53214888 -3.3834358 -0.22938548 0 0 Z " fill="#56B94A" transform="translate(841,361)"/>
</svg>
